<svg id="visual" viewBox="0 0 900 600" width="900" height="600" xmlns="http://www.w3.org/2000/svg" xmlns:xlink="http://www.w3.org/1999/xlink" version="1.1"><rect x="0" y="0" width="900" height="600" fill="#fff"></rect><path d="M0 107L25 166.3C50 225.7 100 344.3 150 399C200 453.7 250 444.3 300 451.5C350 458.7 400 482.3 450 497.8C500 513.3 550 520.7 600 500C650 479.3 700 430.7 750 361.8C800 293 850 204 875 159.5L900 115L900 601L875 601C850 601 800 601 750 601C700 601 650 601 600 601C550 601 500 601 450 601C400 601 350 601 300 601C250 601 200 601 150 601C100 601 50 601 25 601L0 601Z" fill="#0176c3" stroke-linecap="round" stroke-linejoin="miter"></path></svg>